<?xml version="1.0" encoding="UTF-8" standalone="no"?>
<!DOCTYPE svg PUBLIC "-//W3C//DTD SVG 1.1//EN" "http://www.w3.org/Graphics/SVG/1.1/DTD/svg11.dtd">
<svg width="100%" height="100%" viewBox="0 0 24 24" version="1.1" xmlns="http://www.w3.org/2000/svg" xmlns:xlink="http://www.w3.org/1999/xlink" xml:space="preserve" xmlns:serif="http://www.serif.com/" style="fill-rule:evenodd;clip-rule:evenodd;stroke-linejoin:round;stroke-miterlimit:2;">
    <g id="Layer1">
    </g>
    <g transform="matrix(0.991304,0,0,0.991304,0.0135312,2.66285)">
        <path d="M2.704,10.524L5.193,15.506L3.081,15.794L0.654,10.935C0.501,10.629 0.513,10.266 0.687,9.972L3.042,6.31L5.391,6.304L2.704,10.524Z" style="fill:rgb(201,8,19);"/>
    </g>
    <g transform="matrix(0.991304,0,0,0.991304,17.0028,2.66285)">
        <path d="M2.708,10.533L5.064,15.049L3.079,15.555L0.654,10.935C0.498,10.624 0.514,10.255 0.695,9.958L3.094,5.682L5.076,6.308L2.708,10.533Z" style="fill:rgb(201,8,19);"/>
    </g>
    <g transform="matrix(0.795938,0,0,0.695938,2.96016,15.8069)">
        <path d="M23.946,1.827L0.073,1.827L0.073,7.099C0.073,8.069 0.761,8.856 1.609,8.856L22.409,8.856C23.257,8.856 23.946,8.069 23.946,7.099L23.946,1.827ZM2.585,4.701L2.585,5.983L21.433,5.983L21.433,4.701L2.585,4.701Z" style="fill:rgb(201,8,19);"/>
    </g>
    <g transform="matrix(0.991304,0,0,0.991304,0.0135312,1.14541)">
        <path d="M1.677,12.15L19.728,12.126" style="fill:none;"/>
    </g>
    <g transform="matrix(0.991304,0,0,1.95234,0.0700028,-10.6601)">
        <path d="M1.678,12.655L18.642,12.631C18.92,12.631 19.146,12.405 19.146,12.126C19.145,11.848 18.919,11.622 18.64,11.623L1.677,11.646C1.398,11.646 1.172,11.872 1.173,12.151C1.173,12.429 1.4,12.655 1.678,12.655Z" style="fill:rgb(201,8,19);"/>
    </g>
    <g transform="matrix(0.991304,0,0,0.991304,0.0135312,2.13685)">
        <path d="M22.199,1.221C22.199,0.471 21.59,-0.138 20.84,-0.138L4.39,-0.138C3.64,-0.138 3.031,0.471 3.031,1.221L3.031,6.887L22.199,6.887L22.199,1.221ZM6.547,2.789L4.499,2.789L4.499,3.884L6.547,3.884L6.547,2.789ZM13.042,2.789L7.633,2.789L7.633,3.884L13.042,3.884L13.042,2.789ZM17.635,5.568L19.726,2.687L15.574,2.699L17.635,5.568Z" style="fill:rgb(201,8,19);"/>
        <path d="M22.199,1.221C22.199,0.471 21.59,-0.138 20.84,-0.138L4.39,-0.138C3.64,-0.138 3.031,0.471 3.031,1.221L3.031,6.887L22.199,6.887L22.199,1.221ZM21.19,5.878L21.19,1.221C21.19,1.027 21.033,0.87 20.84,0.87L4.39,0.87C4.197,0.87 4.04,1.027 4.04,1.221L4.04,1.891C4.177,1.82 4.334,1.78 4.499,1.78L6.547,1.78C6.747,1.78 6.933,1.838 7.09,1.939C7.246,1.838 7.433,1.78 7.633,1.78L13.042,1.78C13.6,1.78 14.051,2.232 14.051,2.789L14.051,3.884C14.051,4.441 13.6,4.893 13.042,4.893L7.633,4.893C7.433,4.893 7.246,4.835 7.09,4.734C6.933,4.835 6.747,4.893 6.547,4.893L4.499,4.893C4.334,4.893 4.177,4.853 4.04,4.782L4.04,5.878L16.616,5.878L14.754,3.288C14.534,2.981 14.503,2.577 14.675,2.24C14.847,1.904 15.193,1.692 15.571,1.691L19.723,1.678C20.103,1.677 20.451,1.889 20.624,2.228C20.797,2.566 20.765,2.972 20.542,3.28L18.656,5.878L21.19,5.878ZM17.635,5.568L19.726,2.687L15.574,2.699L17.635,5.568ZM6.547,2.789L4.499,2.789L4.499,3.884L6.547,3.884L6.547,2.789ZM13.042,2.789L7.633,2.789L7.633,3.884L13.042,3.884L13.042,2.789Z" style="fill:rgb(201,8,19);"/>
    </g>
</svg>
