<?xml version="1.0" encoding="UTF-8" standalone="no"?>
<!DOCTYPE svg PUBLIC "-//W3C//DTD SVG 1.1//EN" "http://www.w3.org/Graphics/SVG/1.1/DTD/svg11.dtd">
<svg width="100%" height="100%" viewBox="0 0 24 24" version="1.1" xmlns="http://www.w3.org/2000/svg" xmlns:xlink="http://www.w3.org/1999/xlink" xml:space="preserve" xmlns:serif="http://www.serif.com/" style="fill-rule:evenodd;clip-rule:evenodd;stroke-linejoin:round;stroke-miterlimit:2;">
    <g id="Layer1">
    </g>
    <g transform="matrix(0.407407,0,0,0.407407,-8.49571,-8.39377)">
        <g transform="matrix(-3.41723e-16,0.892562,-0.892562,-3.41723e-16,99.7315,5.06396)">
            <path d="M33.923,58.23L39.44,58.23L39.44,74.424L33.923,74.424L33.923,80.071L28.422,80.071L28.422,74.424L23,74.424L23,58.23L28.422,58.23L28.422,30.639L33.923,30.639L33.923,58.23ZM25.634,60.915L25.634,71.754L36.65,71.754L36.65,60.915L25.634,60.915Z" style="fill:rgb(201,8,19);fill-rule:nonzero;"/>
        </g>
        <g transform="matrix(-3.41723e-16,0.892562,-0.892562,-3.41723e-16,99.7315,39.4074)">
            <path d="M33.923,58.23L39.44,58.23L39.44,74.424L33.923,74.424L33.923,80.071L28.422,80.071L28.422,74.424L23,74.424L23,58.23L28.422,58.23L28.422,30.639L33.923,30.639L33.923,58.23ZM25.634,60.915L25.634,71.754L36.65,71.754L36.65,60.915L25.634,60.915Z" style="fill:rgb(201,8,19);fill-rule:nonzero;"/>
        </g>
        <g transform="matrix(3.41723e-16,0.892562,0.892562,-3.41723e-16,0.915631,22.2394)">
            <path d="M33.923,58.23L39.44,58.23L39.44,74.424L33.923,74.424L33.923,80.071L28.422,80.071L28.422,74.424L23,74.424L23,58.23L28.422,58.23L28.422,30.639L33.923,30.639L33.923,58.23ZM25.634,60.915L25.634,71.754L36.65,71.754L36.65,60.915L25.634,60.915Z" style="fill:rgb(201,8,19);fill-rule:nonzero;"/>
        </g>
    </g>
</svg>
