<?xml version="1.0" encoding="UTF-8" standalone="no"?>
<!DOCTYPE svg PUBLIC "-//W3C//DTD SVG 1.1//EN" "http://www.w3.org/Graphics/SVG/1.1/DTD/svg11.dtd">
<svg width="100%" height="100%" viewBox="0 0 24 24" version="1.1" xmlns="http://www.w3.org/2000/svg" xmlns:xlink="http://www.w3.org/1999/xlink" xml:space="preserve" xmlns:serif="http://www.serif.com/" style="fill-rule:evenodd;clip-rule:evenodd;stroke-linejoin:round;stroke-miterlimit:2;">
    <g transform="matrix(0.65929,0,0,0.65929,-11.7344,-11.7344)">
        <path d="M53.19,23.864L18.81,23.864C18.261,23.864 17.81,24.315 17.81,24.864L17.81,47.119C17.81,47.668 18.261,48.119 18.81,48.119L53.19,48.119C53.739,48.119 54.19,47.668 54.19,47.119L54.19,24.864C54.19,24.315 53.739,23.864 53.19,23.864ZM51.225,45.126L20.801,45.126L20.801,26.897L51.225,26.897L51.225,45.126Z" style="fill:rgb(201,8,19);fill-rule:nonzero;"/>
    </g>
    <g transform="matrix(0.97221,0,0,0.97221,-21.3859,-22.2866)">
        <path d="M29.84,36.28L27.78,36.28L27.39,37.37L26.15,37.37L28.15,32.03L29.53,32.03L31.53,37.37L30.23,37.37L29.84,36.28ZM28.17,35.2L29.46,35.2L28.82,33.36L28.17,35.2Z" style="fill:rgb(201,8,19);fill-rule:nonzero;"/>
    </g>
    <g transform="matrix(0.718394,0,0,0.65929,-13.1826,-11.4927)">
        <path d="M46,35.58L32.486,35.58C32.4,35.581 32.326,35.516 32.316,35.43L32.316,34.25C32.326,34.164 32.4,34.099 32.486,34.1L46,34.1C46.086,34.099 46.16,34.164 46.17,34.25L46.17,35.43C46.16,35.516 46.086,35.581 46,35.58Z" style="fill:rgb(201,8,19);fill-rule:nonzero;"/>
    </g>
    <g transform="matrix(0.718394,0,0,0.65929,-13.1826,-11.4827)">
        <path d="M46,38.64L32.486,38.64C32.4,38.641 32.326,38.576 32.316,38.49L32.316,37.31C32.326,37.224 32.4,37.159 32.486,37.16L46,37.16C46.086,37.159 46.16,37.224 46.17,37.31L46.17,38.49C46.16,38.576 46.086,38.641 46,38.64Z" style="fill:rgb(201,8,19);fill-rule:nonzero;"/>
    </g>
    <g transform="matrix(0.784922,0,0,0.65929,-16.2515,-11.3882)">
        <path d="M45.86,41.53L26.14,41.53C25.99,41.53 25.87,41.46 25.87,41.38L25.87,40.2C25.87,40.12 25.99,40.05 26.14,40.05L45.86,40.05C46.01,40.05 46.13,40.12 46.13,40.2L46.13,41.38C46.13,41.46 46,41.53 45.86,41.53Z" style="fill:rgb(201,8,19);fill-rule:nonzero;"/>
    </g>
    <g transform="matrix(0.718394,0,0,0.65929,-13.1826,-11.5893)">
        <path d="M46,32.69L32.416,32.69C32.356,32.69 32.316,32.63 32.316,32.55L32.316,31.4C32.316,31.32 32.316,31.26 32.416,31.26L46,31.26C46.06,31.26 46.1,31.32 46.1,31.4L46.1,32.55C46.13,32.63 46.09,32.69 46,32.69Z" style="fill:rgb(201,8,19);fill-rule:nonzero;"/>
    </g>
</svg>
