<?xml version="1.0" encoding="UTF-8" standalone="no"?>
<!DOCTYPE svg PUBLIC "-//W3C//DTD SVG 1.1//EN" "http://www.w3.org/Graphics/SVG/1.1/DTD/svg11.dtd">
<svg width="100%" height="100%" viewBox="0 0 24 24" version="1.1" xmlns="http://www.w3.org/2000/svg" xmlns:xlink="http://www.w3.org/1999/xlink" xml:space="preserve" xmlns:serif="http://www.serif.com/" style="fill-rule:evenodd;clip-rule:evenodd;stroke-linejoin:round;stroke-miterlimit:2;">
    <g transform="matrix(1.15278,0,0,1.15278,-29.4809,-29.5244)">
        <path d="M33.25,36.3C32.457,36.175 31.875,35.472 31.9,34.67C31.9,34.659 31.9,34.648 31.9,34.636C31.9,33.682 32.685,32.896 33.64,32.896C33.676,32.896 33.713,32.898 33.75,32.9C34.99,32.9 35.75,33.9 35.75,35.31C35.75,37.39 34.37,38.92 31.86,39.1L31.86,38.4C33.28,38.16 34.14,37.4 34.24,36.3L33.25,36.3ZM37.71,36.3C36.917,36.175 36.335,35.472 36.36,34.67C36.36,34.663 36.36,34.655 36.36,34.648C36.36,33.688 37.15,32.898 38.11,32.898C38.14,32.898 38.17,32.898 38.2,32.9C39.45,32.9 40.2,33.9 40.2,35.31C40.2,37.39 38.83,38.92 36.32,39.1L36.32,38.4C37.77,38.16 38.6,37.4 38.73,36.3L37.71,36.3Z" style="fill:rgb(201,8,19);fill-rule:nonzero;"/>
    </g>
    <g transform="matrix(0.966954,0,0,0.966954,-22.7856,-22.835)">
        <path d="M36,48.4C29.198,48.4 23.6,42.802 23.6,36C23.6,29.198 29.198,23.6 36,23.6C42.802,23.6 48.4,29.198 48.4,36C48.389,42.798 42.798,48.389 36,48.4ZM36,26.521C30.8,26.521 26.521,30.8 26.521,36C26.521,41.2 30.8,45.479 36,45.479C41.2,45.479 45.479,41.2 45.479,36C45.479,30.8 41.2,26.521 36,26.521Z" style="fill:rgb(201,8,19);fill-rule:nonzero;"/>
    </g>
</svg>
