<?xml version="1.0" encoding="UTF-8" standalone="no"?>
<!DOCTYPE svg PUBLIC "-//W3C//DTD SVG 1.1//EN" "http://www.w3.org/Graphics/SVG/1.1/DTD/svg11.dtd">
<svg width="100%" height="100%" viewBox="0 0 24 24" version="1.1" xmlns="http://www.w3.org/2000/svg" xmlns:xlink="http://www.w3.org/1999/xlink" xml:space="preserve" xmlns:serif="http://www.serif.com/" style="fill-rule:evenodd;clip-rule:evenodd;stroke-linejoin:round;stroke-miterlimit:2;">
    <g transform="matrix(0.658933,0,0,0.658933,-11.7397,-13.7754)">
        <path d="M53.19,23.916L18.81,23.916C18.261,23.916 17.81,24.367 17.81,24.916L17.81,53.301C17.81,53.85 18.261,54.301 18.81,54.301L53.19,54.301C53.739,54.301 54.19,53.85 54.19,53.301L54.19,24.916C54.19,24.367 53.739,23.916 53.19,23.916ZM21.647,25.904C22.71,25.904 23.584,26.778 23.584,27.84C23.584,28.902 22.71,29.776 21.647,29.776C20.585,29.776 19.711,28.902 19.711,27.84C19.711,26.778 20.585,25.904 21.647,25.904ZM51.317,51.302L20.814,51.302L20.814,31.52L51.317,31.52L51.317,51.302Z" style="fill:rgb(201,8,19);fill-rule:nonzero;"/>
    </g>
    <g transform="matrix(0.616387,0,0,0.616387,-9.75411,-12.3607)">
        <path d="M46.5,39.4L33.87,39.4C33.863,39.401 33.857,39.401 33.85,39.401C33.768,39.401 33.7,39.334 33.7,39.251C33.7,39.251 33.7,39.25 33.7,39.25L33.7,38.07C33.705,37.986 33.776,37.92 33.86,37.92C33.863,37.92 33.867,37.92 33.87,37.92L46.5,37.92C46.586,37.919 46.66,37.984 46.67,38.07L46.67,39.25C46.665,39.334 46.594,39.4 46.51,39.4C46.507,39.4 46.503,39.4 46.5,39.4Z" style="fill:rgb(201,8,19);fill-rule:nonzero;"/>
    </g>
    <g transform="matrix(1.15771,0,0,0.616387,-35.0176,-6.37286)">
        <path d="M46.5,39.4L33.87,39.4C33.863,39.401 33.857,39.401 33.85,39.401C33.768,39.401 33.7,39.334 33.7,39.251C33.7,39.251 33.7,39.25 33.7,39.25L33.7,38.07C33.705,37.986 33.776,37.92 33.86,37.92C33.863,37.92 33.867,37.92 33.87,37.92L46.5,37.92C46.586,37.919 46.66,37.984 46.67,38.07L46.67,39.25C46.665,39.334 46.594,39.4 46.51,39.4C46.507,39.4 46.503,39.4 46.5,39.4Z" style="fill:rgb(201,8,19);fill-rule:nonzero;"/>
    </g>
    <g transform="matrix(0.616387,0,0,0.616387,-9.75411,-12.2492)">
        <path d="M46.5,42.46L33.87,42.46C33.863,42.461 33.857,42.461 33.85,42.461C33.771,42.461 33.705,42.399 33.7,42.32L33.7,41.14C33.7,41.14 33.7,41.139 33.7,41.139C33.7,41.056 33.768,40.989 33.85,40.989C33.857,40.989 33.863,40.989 33.87,40.99L46.5,40.99C46.503,40.99 46.507,40.99 46.51,40.99C46.594,40.99 46.665,41.056 46.67,41.14L46.67,42.32C46.66,42.404 46.584,42.466 46.5,42.46Z" style="fill:rgb(201,8,19);fill-rule:nonzero;"/>
    </g>
    <g transform="matrix(0.616387,0,0,0.616387,-9.75411,-12.587)">
        <path d="M46.57,36.52L33.8,36.52C33.74,36.52 33.7,36.45 33.7,36.37L33.7,35.23C33.7,35.15 33.7,35.08 33.8,35.08L46.57,35.08C46.63,35.08 46.67,35.15 46.67,35.23L46.67,36.37C46.67,36.45 46.63,36.52 46.57,36.52Z" style="fill:rgb(201,8,19);fill-rule:nonzero;"/>
    </g>
    <g transform="matrix(1.15771,0,0,0.616387,-35.0176,-6.59913)">
        <path d="M46.57,36.52L33.8,36.52C33.74,36.52 33.7,36.45 33.7,36.37L33.7,35.23C33.7,35.15 33.7,35.08 33.8,35.08L46.57,35.08C46.63,35.08 46.67,35.15 46.67,35.23L46.67,36.37C46.67,36.45 46.63,36.52 46.57,36.52Z" style="fill:rgb(201,8,19);fill-rule:nonzero;"/>
    </g>
    <g transform="matrix(0.636764,0,0,0.636764,-11.0421,-13.2219)">
        <path d="M30.87,42.68L24.27,42.68C23.941,42.68 23.67,42.409 23.67,42.08L23.67,35.47C23.67,35.141 23.941,34.87 24.27,34.87L30.87,34.87C31.199,34.87 31.47,35.141 31.47,35.47L31.47,42.08C31.47,42.409 31.199,42.68 30.87,42.68ZM25.149,36.286L25.149,41.161L30.27,41.161" style="fill:rgb(201,8,19);fill-rule:nonzero;"/>
    </g>
</svg>
