<?xml version="1.0" encoding="UTF-8" standalone="no"?>
<!DOCTYPE svg PUBLIC "-//W3C//DTD SVG 1.1//EN" "http://www.w3.org/Graphics/SVG/1.1/DTD/svg11.dtd">
<svg width="100%" height="100%" viewBox="0 0 24 24" version="1.1" xmlns="http://www.w3.org/2000/svg" xmlns:xlink="http://www.w3.org/1999/xlink" xml:space="preserve" xmlns:serif="http://www.serif.com/" style="fill-rule:evenodd;clip-rule:evenodd;stroke-linejoin:round;stroke-miterlimit:2;">
    <g transform="matrix(0.711052,0,0,0.711052,-13.6215,-13.611)">
        <path d="M19.14,43.07L35.83,43.07L35.83,40.24L22,40.24L22,31.77L26.27,31.77L26.27,34.39L32.95,30.52L26.27,26.64L26.27,28.93L19.17,28.93L19.14,43.07Z" style="fill:rgb(201,8,19);fill-rule:nonzero;"/>
    </g>
    <g transform="matrix(0.711052,0,0,0.711052,-13.6215,-13.611)">
        <path d="M39.08,41.48L45.76,45.36L45.76,43.07L52.86,43.07L52.86,28.93L36.17,28.93L36.17,31.77L50,31.77L50,40.24L45.76,40.24L45.76,37.61L39.08,41.48Z" style="fill:rgb(201,8,19);fill-rule:nonzero;"/>
    </g>
</svg>
