<?xml version="1.0" encoding="UTF-8" standalone="no"?>
<!DOCTYPE svg PUBLIC "-//W3C//DTD SVG 1.1//EN" "http://www.w3.org/Graphics/SVG/1.1/DTD/svg11.dtd">
<svg width="100%" height="100%" viewBox="0 0 24 24" version="1.1" xmlns="http://www.w3.org/2000/svg" xmlns:xlink="http://www.w3.org/1999/xlink" xml:space="preserve" xmlns:serif="http://www.serif.com/" style="fill-rule:evenodd;clip-rule:evenodd;stroke-linejoin:round;stroke-miterlimit:2;">
    <g id="aaA" transform="matrix(0.664053,0,0,0.664053,-11.9059,-12.2094)">
        <path d="M53.07,24.43L18.93,24.43C18.381,24.43 17.93,24.881 17.93,25.43L17.93,45.953C17.93,46.502 18.381,46.953 18.93,46.953L53.07,46.953C53.619,46.953 54.07,46.502 54.07,45.953L54.07,25.43C54.07,24.881 53.619,24.43 53.07,24.43ZM26.904,39.252C26.904,39.332 26.904,39.392 26.844,39.392L20.986,39.392C20.986,39.392 20.926,39.332 20.926,39.252L20.926,38.112C20.926,38.032 20.926,37.972 20.986,37.972L26.844,37.972C26.844,37.972 26.904,38.032 26.904,38.112L26.904,39.252ZM26.904,36.263C26.904,36.343 26.904,36.413 26.844,36.413L20.986,36.413C20.986,36.413 20.926,36.343 20.926,36.263L20.926,35.133C20.926,35.053 20.926,34.983 20.986,34.983L26.844,34.983C26.844,34.983 26.904,35.053 26.904,35.133L26.904,36.263ZM26.904,33.265L26.904,33.405L20.956,33.405L20.956,31.985L26.874,31.985L26.874,32.125L26.904,33.265ZM51.096,44.016L29.985,44.016L29.985,27.409L51.096,27.409L51.096,44.016Z" style="fill:rgb(201,8,19);fill-rule:nonzero;"/>
    </g>
    <g transform="matrix(0.664053,0,0,0.664053,-11.9828,-12.306)">
        <path d="M47.907,36.63L33.298,36.63C33.208,36.636 33.129,36.569 33.118,36.48L33.118,35.3C33.129,35.211 33.208,35.144 33.298,35.15L47.907,35.15C47.997,35.144 48.077,35.211 48.087,35.3L48.087,36.48C48.077,36.569 47.997,36.636 47.907,36.63Z" style="fill:rgb(201,8,19);fill-rule:nonzero;"/>
    </g>
    <g transform="matrix(0.664053,0,0,0.664053,-11.9828,-12.3593)">
        <path d="M47.907,39.69L33.298,39.69C33.208,39.696 33.129,39.629 33.118,39.54L33.118,38.36C33.129,38.271 33.208,38.204 33.298,38.21L47.907,38.21C47.997,38.204 48.077,38.271 48.087,38.36L48.087,39.54C48.077,39.629 47.997,39.696 47.907,39.69Z" style="fill:rgb(201,8,19);fill-rule:nonzero;"/>
    </g>
    <g transform="matrix(0.664053,0,0,0.664053,-11.9828,-12.4394)">
        <path d="M47.987,33.74L33.218,33.74C33.168,33.74 33.118,33.68 33.118,33.6L33.118,32.45C33.118,32.37 33.118,32.31 33.218,32.31L47.987,32.31C48.037,32.31 48.087,32.37 48.087,32.45L48.087,33.6C48.087,33.68 48.037,33.74 47.987,33.74Z" style="fill:rgb(201,8,19);fill-rule:nonzero;"/>
    </g>
</svg>
