<svg id="Layer_1" data-name="Layer 1" xmlns="http://www.w3.org/2000/svg" viewBox="0 0 72 72"><defs><style>.cls-1{fill:#c90813;}</style></defs><title>svg-bu-icons</title><path class="cls-1" d="M33.25,36.3a1.6,1.6,0,0,1-1.35-1.63,1.74,1.74,0,0,1,1.85-1.77c1.24,0,2,1,2,2.41,0,2.08-1.38,3.61-3.89,3.79v-.7c1.42-.24,2.28-1,2.38-2.1Zm4.46,0a1.6,1.6,0,0,1-1.35-1.63A1.75,1.75,0,0,1,38.2,32.9c1.25,0,2,1,2,2.41,0,2.08-1.37,3.61-3.88,3.79v-.7c1.45-.24,2.28-1,2.41-2.1Z"/><path class="cls-1" d="M36,48.4A12.4,12.4,0,1,1,48.4,36,12.42,12.42,0,0,1,36,48.4Zm0-23.07A10.67,10.67,0,1,0,46.67,36,10.67,10.67,0,0,0,36,25.33Z"/></svg>