<?xml version="1.0" encoding="UTF-8" standalone="no"?>
<!DOCTYPE svg PUBLIC "-//W3C//DTD SVG 1.1//EN" "http://www.w3.org/Graphics/SVG/1.1/DTD/svg11.dtd">
<svg width="100%" height="100%" viewBox="0 0 24 24" version="1.1" xmlns="http://www.w3.org/2000/svg" xmlns:xlink="http://www.w3.org/1999/xlink" xml:space="preserve" xmlns:serif="http://www.serif.com/" style="fill-rule:evenodd;clip-rule:evenodd;stroke-linejoin:round;stroke-miterlimit:2;">
    <g transform="matrix(0.675284,0,0,0.675284,-12.0173,-12.301)">
        <path d="M52.297,24.16L18.81,24.16C18.261,24.16 17.81,24.611 17.81,25.16L17.81,46.84C17.81,47.389 18.261,47.84 18.81,47.84L52.297,47.84C52.845,47.84 53.297,47.389 53.297,46.84L53.297,25.16C53.297,24.611 52.845,24.16 52.297,24.16ZM35.553,44.889L20.775,44.889L20.775,27.094L35.553,27.094L35.553,44.889ZM50.88,37.511L38.656,37.511C38.656,37.511 38.57,37.511 38.558,37.401C38.539,37.346 38.539,37.286 38.558,37.23L42.385,32.855C42.399,32.839 42.419,32.83 42.44,32.83C42.461,32.83 42.481,32.839 42.495,32.855L45.152,35.792L47.236,33.757C47.264,33.732 47.306,33.732 47.333,33.757L50.892,37.218C50.914,37.277 50.914,37.342 50.892,37.401C50.965,37.462 50.929,37.511 50.88,37.511Z" style="fill:rgb(201,8,19);fill-rule:nonzero;"/>
    </g>
    <g transform="matrix(1.08994,0,0,1.35704,-22.7307,-37.8161)">
        <path d="M30.455,37.467L23.882,37.467C23.832,37.467 23.59,37.397 23.59,37.317L23.59,36.86C23.59,36.78 23.792,36.72 23.882,36.72L30.455,36.72C30.515,36.72 30.89,36.78 30.89,36.86L30.89,37.317C30.89,37.397 30.515,37.467 30.455,37.467Z" style="fill:rgb(201,8,19);fill-rule:nonzero;"/>
    </g>
    <g transform="matrix(1.08994,0,0,1.3643,-22.6861,-37.1551)">
        <path d="M30.505,35.28L23.842,35.28C23.842,35.28 23.59,35.22 23.59,35.14L23.59,34.741C23.59,34.661 23.792,34.591 23.842,34.591L30.505,34.591C30.505,34.591 30.89,34.661 30.89,34.741L30.89,35.14C30.89,35.22 30.535,35.28 30.505,35.28Z" style="fill:rgb(201,8,19);fill-rule:nonzero;"/>
    </g>
</svg>
