<?xml version="1.0" encoding="UTF-8" standalone="no"?>
<!DOCTYPE svg PUBLIC "-//W3C//DTD SVG 1.1//EN" "http://www.w3.org/Graphics/SVG/1.1/DTD/svg11.dtd">
<svg width="100%" height="100%" viewBox="0 0 24 24" version="1.1" xmlns="http://www.w3.org/2000/svg" xmlns:xlink="http://www.w3.org/1999/xlink" xml:space="preserve" xmlns:serif="http://www.serif.com/" style="fill-rule:evenodd;clip-rule:evenodd;stroke-linejoin:round;stroke-miterlimit:2;">
    <g transform="matrix(0.675166,0,0,0.675166,-12.0201,-12.31)">
        <path d="M52.305,24.16L18.81,24.16C18.261,24.16 17.81,24.611 17.81,25.16L17.81,46.84C17.81,47.389 18.261,47.84 18.81,47.84L52.305,47.84C52.854,47.84 53.305,47.389 53.305,46.84L53.305,25.16C53.305,24.611 52.854,24.16 52.305,24.16ZM34.119,27.128L34.119,34.488L20.756,34.488L20.756,27.128L34.119,27.128ZM20.756,37.508L34.119,37.508L34.119,44.918M50.401,44.881L37.067,44.881L37.076,27.128L50.4,27.128L50.401,44.881Z" style="fill:rgb(201,8,19);fill-rule:nonzero;"/>
    </g>
    <g transform="matrix(0.675166,0,0,0.675166,-12.0201,-12.31)">
        <path d="M49.106,37.477L39.106,37.477C39.106,37.477 39.036,37.477 39.026,37.387C39.01,37.341 39.01,37.292 39.026,37.247L42.116,32.625C42.128,32.612 42.144,32.605 42.161,32.605C42.179,32.605 42.195,32.612 42.206,32.625L44.406,36.067L46.116,34.397C46.139,34.376 46.173,34.376 46.196,34.397L49.116,37.237C49.134,37.285 49.134,37.338 49.116,37.387C49.176,37.437 49.146,37.477 49.106,37.477Z" style="fill:rgb(201,8,19);fill-rule:nonzero;"/>
    </g>
</svg>
