<?xml version="1.0" encoding="UTF-8" standalone="no"?>
<!DOCTYPE svg PUBLIC "-//W3C//DTD SVG 1.1//EN" "http://www.w3.org/Graphics/SVG/1.1/DTD/svg11.dtd">
<svg width="100%" height="100%" viewBox="0 0 24 24" version="1.1" xmlns="http://www.w3.org/2000/svg" xmlns:xlink="http://www.w3.org/1999/xlink" xml:space="preserve" xmlns:serif="http://www.serif.com/" style="fill-rule:evenodd;clip-rule:evenodd;stroke-linejoin:round;stroke-miterlimit:2;">
    <g transform="matrix(0.703311,0,0,0.703311,-13.3192,-13.3192)">
        <path d="M45.283,27.5L26.779,27.5C22.449,27.5 18.929,31.31 18.929,36C18.929,40.69 22.449,44.5 26.779,44.5L45.283,44.5C49.613,44.5 53.133,40.69 53.133,36C53.133,31.31 49.613,27.5 45.283,27.5ZM39.79,34.39L36.28,38L35.22,39C35.173,39.05 35.108,39.079 35.04,39.08C34.975,39.076 34.914,39.048 34.87,39L32.21,36.35C32.167,36.3 32.142,36.236 32.14,36.17C32.14,36.106 32.165,36.045 32.21,36L33.28,35C33.324,34.952 33.385,34.924 33.45,34.92C33.518,34.921 33.583,34.95 33.63,35L35,36.37L38.37,33C38.417,32.95 38.482,32.921 38.55,32.92C38.615,32.924 38.676,32.952 38.72,33L39.79,34C39.832,34.047 39.856,34.107 39.86,34.17C39.868,34.25 39.843,34.33 39.79,34.39Z" style="fill:rgb(201,8,19);fill-rule:nonzero;"/>
    </g>
</svg>
