<?xml version="1.0" encoding="UTF-8" standalone="no"?>
<!DOCTYPE svg PUBLIC "-//W3C//DTD SVG 1.1//EN" "http://www.w3.org/Graphics/SVG/1.1/DTD/svg11.dtd">
<svg width="100%" height="100%" viewBox="0 0 24 24" version="1.1" xmlns="http://www.w3.org/2000/svg" xmlns:xlink="http://www.w3.org/1999/xlink" xml:space="preserve" xmlns:serif="http://www.serif.com/" style="fill-rule:evenodd;clip-rule:evenodd;stroke-linejoin:round;stroke-miterlimit:2;">
    <g transform="matrix(0.658557,0,0,0.658557,-12.0984,-11.9076)">
        <path d="M53.78,24.16L19.39,24.16C18.841,24.16 18.39,24.611 18.39,25.16L18.39,47.419C18.39,47.968 18.841,48.419 19.39,48.419L53.78,48.419C54.329,48.419 54.78,47.968 54.78,47.419L54.78,25.16C54.78,24.611 54.329,24.16 53.78,24.16ZM51.807,45.421L21.394,45.421L21.394,27.21L51.807,27.21L51.807,45.421Z" style="fill:rgb(201,8,19);fill-rule:nonzero;"/>
    </g>
    <g transform="matrix(0.973419,0,0,0.973419,-23.1024,-23.2853)">
        <path d="M39.719,36.32L33.608,32.755L33.608,39.845L39.719,36.32Z" style="fill:rgb(201,8,19);fill-rule:nonzero;"/>
    </g>
</svg>
