<?xml version="1.0" encoding="UTF-8" standalone="no"?>
<!DOCTYPE svg PUBLIC "-//W3C//DTD SVG 1.1//EN" "http://www.w3.org/Graphics/SVG/1.1/DTD/svg11.dtd">
<svg width="100%" height="100%" viewBox="0 0 24 24" version="1.1" xmlns="http://www.w3.org/2000/svg" xmlns:xlink="http://www.w3.org/1999/xlink" xml:space="preserve" xmlns:serif="http://www.serif.com/" style="fill-rule:evenodd;clip-rule:evenodd;stroke-linejoin:round;stroke-miterlimit:2;">
    <g id="Layer1">
        <g transform="matrix(0.65929,0,0,0.65929,-11.7344,-11.7344)">
            <path d="M53.19,23.864L18.81,23.864C18.261,23.864 17.81,24.315 17.81,24.864L17.81,47.119C17.81,47.668 18.261,48.119 18.81,48.119L53.19,48.119C53.739,48.119 54.19,47.668 54.19,47.119L54.19,24.864C54.19,24.315 53.739,23.864 53.19,23.864ZM51.225,45.126L20.801,45.126L20.801,26.897L51.225,26.897L51.225,45.126Z" style="fill:rgb(201,8,19);fill-rule:nonzero;"/>
        </g>
        <g transform="matrix(13.0482,0,0,13.0482,2.7199,15.411)">
            <path d="M0.055,-0.226L0.055,-0.275C0.055,-0.284 0.06,-0.292 0.07,-0.297L0.432,-0.5C0.437,-0.503 0.442,-0.502 0.447,-0.499C0.452,-0.495 0.455,-0.489 0.455,-0.481L0.455,-0.421C0.455,-0.413 0.45,-0.406 0.44,-0.4L0.173,-0.254C0.171,-0.253 0.17,-0.252 0.17,-0.25C0.17,-0.248 0.171,-0.247 0.173,-0.246L0.44,-0.1C0.45,-0.094 0.455,-0.087 0.455,-0.079L0.455,-0.019C0.455,-0.011 0.453,-0.005 0.448,-0.002C0.442,0.001 0.437,0.002 0.432,-0L0.07,-0.204C0.06,-0.209 0.055,-0.217 0.055,-0.226Z" style="fill:rgb(201,8,19);fill-rule:nonzero;"/>
        </g>
        <g transform="matrix(13.0482,0,0,9.8855,8.38617,15.5771)">
            <path d="M0.098,-0.016L0.364,-0.695C0.367,-0.705 0.373,-0.71 0.383,-0.71L0.435,-0.71C0.442,-0.71 0.447,-0.707 0.45,-0.701C0.454,-0.696 0.454,-0.689 0.451,-0.682L0.187,-0.003C0.184,0.007 0.177,0.012 0.166,0.012L0.114,0.012C0.107,0.012 0.102,0.009 0.098,0.004C0.095,-0.002 0.095,-0.009 0.098,-0.016Z" style="fill:rgb(201,8,19);fill-rule:nonzero;"/>
        </g>
        <g transform="matrix(13.0482,0,0,13.0482,13.7943,15.411)">
            <path d="M0.095,-0.019L0.095,-0.079C0.095,-0.087 0.1,-0.094 0.11,-0.1L0.377,-0.246C0.382,-0.249 0.382,-0.251 0.377,-0.254L0.11,-0.4C0.1,-0.406 0.095,-0.413 0.095,-0.421L0.095,-0.481C0.095,-0.489 0.098,-0.495 0.103,-0.499C0.108,-0.502 0.113,-0.503 0.118,-0.5L0.48,-0.297C0.49,-0.292 0.495,-0.284 0.495,-0.275L0.495,-0.226C0.495,-0.217 0.49,-0.209 0.48,-0.204L0.118,-0C0.114,0.003 0.109,0.002 0.103,-0.001C0.098,-0.005 0.095,-0.011 0.095,-0.019Z" style="fill:rgb(201,8,19);fill-rule:nonzero;"/>
        </g>
    </g>
</svg>
