<svg id="Layer_1" data-name="Layer 1" xmlns="http://www.w3.org/2000/svg" viewBox="0 0 72 72"><defs><style>.cls-1{fill:#c90813;}</style></defs><title>svg-bu-icons</title><path class="cls-1" d="M53.19,24.16H18.81a1,1,0,0,0-1,1V46.84a1,1,0,0,0,1,1H53.19a1,1,0,0,0,1-1V25.16A1,1,0,0,0,53.19,24.16Zm-1,21.68H19.8V26.16H52.19Z"/><path class="cls-1" d="M43.91,34.06H28.09c-.12,0-.21-.06-.21-.14V32.74c0-.09.09-.15.21-.15H43.91c.12,0,.22.06.22.15v1.18C44.13,34,44,34.06,43.91,34.06Z"/><path class="cls-1" d="M44,31.18H28a.14.14,0,0,1-.12-.15V29.89a.13.13,0,0,1,.12-.14H44a.13.13,0,0,1,.13.14V31A.14.14,0,0,1,44,31.18Z"/><path class="cls-1" d="M44,36.91H28a.14.14,0,0,1-.12-.15V35.62a.14.14,0,0,1,.12-.15H44a.14.14,0,0,1,.13.15v1.14A.14.14,0,0,1,44,36.91Z"/><path class="cls-1" d="M44,36.91H28a.14.14,0,0,1-.12-.15V35.62a.14.14,0,0,1,.12-.15H44a.14.14,0,0,1,.13.15v1.14A.14.14,0,0,1,44,36.91Z"/><path class="cls-1" d="M32,39.36H27.86a.12.12,0,0,0-.11.13v2.64a.11.11,0,0,0,.11.12H32a.11.11,0,0,0,.11-.12V39.49A.12.12,0,0,0,32,39.36Z"/><path class="cls-1" d="M44,39.36H39.86a.12.12,0,0,0-.11.13v2.64a.11.11,0,0,0,.11.12H44a.11.11,0,0,0,.11-.12V39.49A.12.12,0,0,0,44,39.36Z"/><path class="cls-1" d="M38,39.36H33.86a.12.12,0,0,0-.11.13v2.64a.11.11,0,0,0,.11.12H38a.11.11,0,0,0,.11-.12V39.49A.12.12,0,0,0,38,39.36Z"/></svg>