<?xml version="1.0" encoding="UTF-8" standalone="no"?>
<!DOCTYPE svg PUBLIC "-//W3C//DTD SVG 1.1//EN" "http://www.w3.org/Graphics/SVG/1.1/DTD/svg11.dtd">
<svg width="100%" height="100%" viewBox="0 0 24 24" version="1.1" xmlns="http://www.w3.org/2000/svg" xmlns:xlink="http://www.w3.org/1999/xlink" xml:space="preserve" xmlns:serif="http://www.serif.com/" style="fill-rule:evenodd;clip-rule:evenodd;stroke-linejoin:round;stroke-miterlimit:2;">
    <g transform="matrix(0.65892,0,0,0.65892,-11.7278,-11.7414)">
        <path d="M53.19,24.16L18.81,24.16C18.261,24.16 17.81,24.611 17.81,25.16L17.81,46.84C17.81,47.389 18.261,47.84 18.81,47.84L53.19,47.84C53.739,47.84 54.19,47.389 54.19,46.84L54.19,25.16C54.19,24.611 53.739,24.16 53.19,24.16ZM52.19,45.84L19.8,45.84L19.8,26.16L52.19,26.16L52.19,45.84Z" style="fill:rgb(201,8,19);fill-rule:nonzero;"/>
    </g>
    <g transform="matrix(0.65892,0,0,0.65892,-11.7278,-11.7414)">
        <path d="M43.91,35.32L28.09,35.32C27.97,35.32 27.88,35.26 27.88,35.18L27.88,34C27.88,33.91 27.97,33.85 28.09,33.85L43.91,33.85C44.03,33.85 44.12,33.91 44.12,34L44.12,35.18C44.12,35.26 44,35.32 43.91,35.32Z" style="fill:rgb(201,8,19);fill-rule:nonzero;"/>
    </g>
    <g transform="matrix(0.65892,0,0,0.65892,-11.7278,-11.7414)">
        <path d="M44,32.44L28,32.44C27.932,32.435 27.88,32.378 27.88,32.31C27.88,32.307 27.88,32.303 27.88,32.3L27.88,31.15C27.879,31.143 27.878,31.137 27.878,31.13C27.878,31.062 27.932,31.004 28,31L44,31C44.068,31.005 44.12,31.062 44.12,31.13C44.12,31.133 44.12,31.137 44.12,31.14L44.12,32.3C44.12,32.303 44.12,32.307 44.12,32.31C44.12,32.378 44.068,32.435 44,32.44Z" style="fill:rgb(201,8,19);fill-rule:nonzero;"/>
    </g>
    <g transform="matrix(0.65892,0,0,0.65892,-11.7278,-11.7414)">
        <path d="M41.84,41.65L30.15,41.65C30.15,41.65 30.08,41.65 30.07,41.56C30.05,41.516 30.05,41.464 30.07,41.42L33.76,37.83C33.773,37.817 33.791,37.809 33.81,37.809C33.829,37.809 33.847,37.817 33.86,37.83L36.32,40.24L38.32,38.57C38.346,38.548 38.384,38.548 38.41,38.57L41.84,41.42L41.84,41.56C41.84,41.62 41.88,41.65 41.84,41.65Z" style="fill:rgb(201,8,19);fill-rule:nonzero;"/>
    </g>
</svg>
