<?xml version="1.0" encoding="UTF-8" standalone="no"?>
<!DOCTYPE svg PUBLIC "-//W3C//DTD SVG 1.1//EN" "http://www.w3.org/Graphics/SVG/1.1/DTD/svg11.dtd">
<svg width="100%" height="100%" viewBox="0 0 24 24" version="1.1" xmlns="http://www.w3.org/2000/svg" xmlns:xlink="http://www.w3.org/1999/xlink" xml:space="preserve" xmlns:serif="http://www.serif.com/" style="fill-rule:evenodd;clip-rule:evenodd;stroke-linejoin:round;stroke-miterlimit:2;">
    <g transform="matrix(2.90833,0,0,1.41188,-24.4476,-5.32875)">
        <path d="M12.53,11.574L13.241,12.995L11.819,12.995L12.53,11.574Z" style="fill:rgb(201,8,19);"/>
    </g>
    <g transform="matrix(0.65892,0,0,0.65892,-11.7278,-11.3863)">
        <path d="M44.929,32.44L27.175,32.44C27.108,32.435 27.055,32.378 27.055,32.31C27.055,32.307 27.055,32.303 27.055,32.3L27.055,31.15C27.054,31.143 27.053,31.137 27.053,31.13C27.053,31.062 27.107,31.004 27.175,31L44.929,31C44.996,31.005 45.049,31.062 45.049,31.13C45.049,31.133 45.049,31.137 45.049,31.14L45.049,32.3C45.049,32.303 45.049,32.307 45.049,32.31C45.049,32.378 44.996,32.435 44.929,32.44Z" style="fill:rgb(201,8,19);fill-rule:nonzero;"/>
    </g>
    <g transform="matrix(0.65892,0,0,0.65892,-11.7278,-13.3791)">
        <path d="M44.929,32.44L27.175,32.44C27.108,32.435 27.055,32.378 27.055,32.31C27.055,32.307 27.055,32.303 27.055,32.3L27.055,31.15C27.054,31.143 27.053,31.137 27.053,31.13C27.053,31.062 27.107,31.004 27.175,31L44.929,31C44.996,31.005 45.049,31.062 45.049,31.13C45.049,31.133 45.049,31.137 45.049,31.14L45.049,32.3C45.049,32.303 45.049,32.307 45.049,32.31C45.049,32.378 44.996,32.435 44.929,32.44Z" style="fill:rgb(201,8,19);fill-rule:nonzero;"/>
    </g>
    <g transform="matrix(0.65892,0,0,0.65892,-11.7278,-15.4236)">
        <path d="M44.929,32.44L27.175,32.44C27.108,32.435 27.055,32.378 27.055,32.31C27.055,32.307 27.055,32.303 27.055,32.3L27.055,31.15C27.054,31.143 27.053,31.137 27.053,31.13C27.053,31.062 27.107,31.004 27.175,31L44.929,31C44.996,31.005 45.049,31.062 45.049,31.13C45.049,31.133 45.049,31.137 45.049,31.14L45.049,32.3C45.049,32.303 45.049,32.307 45.049,32.31C45.049,32.378 44.996,32.435 44.929,32.44Z" style="fill:rgb(201,8,19);fill-rule:nonzero;"/>
    </g>
    <path d="M23.32,1.037L0.667,1.037C0.305,1.037 0.008,1.334 0.008,1.695L0.008,22.342C0.008,22.703 0.305,23.001 0.667,23.001L23.32,23.001C23.682,23.001 23.979,22.703 23.979,22.342L23.979,1.695C23.979,1.334 23.682,1.037 23.32,1.037ZM20.918,21.018L14.036,21.018C14.004,21.018 13.982,20.969 13.982,20.912L13.982,20.104C13.982,20.047 13.982,19.997 14.036,19.997L20.918,19.997C20.95,19.997 20.972,20.047 20.972,20.104L20.972,20.912C20.972,20.969 20.95,21.018 20.918,21.018ZM11.747,20.029L2.661,20.029C2.661,20.029 2.607,20.029 2.599,19.945C2.583,19.904 2.583,19.856 2.599,19.815L5.467,16.479C5.477,16.466 5.491,16.459 5.506,16.459C5.521,16.459 5.535,16.466 5.545,16.479L7.457,18.718L9.011,17.166C9.031,17.146 9.061,17.146 9.081,17.166L11.747,19.815L11.747,19.945C11.747,20.001 11.778,20.029 11.747,20.029ZM20.918,19.024L14.036,19.024C14.004,19.024 13.982,18.974 13.982,18.917L13.982,18.109C13.982,18.052 13.982,18.003 14.036,18.003L20.918,18.003C20.95,18.003 20.972,18.052 20.972,18.109L20.972,18.917C20.972,18.974 20.95,19.024 20.918,19.024ZM20.918,17.02L14.036,17.02C14.004,17.02 13.982,16.97 13.982,16.913L13.982,16.105C13.982,16.048 13.982,15.999 14.036,15.999L20.918,15.999C20.95,15.999 20.972,16.048 20.972,16.105L20.972,16.913C20.972,16.97 20.95,17.02 20.918,17.02ZM22.027,12.999L1.973,12.999L1.973,2.997L22.027,2.997L22.027,12.999Z" style="fill:rgb(201,8,19);fill-rule:nonzero;"/>
</svg>
