<?xml version="1.0" encoding="UTF-8" standalone="no"?>
<!DOCTYPE svg PUBLIC "-//W3C//DTD SVG 1.1//EN" "http://www.w3.org/Graphics/SVG/1.1/DTD/svg11.dtd">
<svg width="100%" height="100%" viewBox="0 0 24 24" version="1.1" xmlns="http://www.w3.org/2000/svg" xmlns:xlink="http://www.w3.org/1999/xlink" xml:space="preserve" xmlns:serif="http://www.serif.com/" style="fill-rule:evenodd;clip-rule:evenodd;stroke-linejoin:round;stroke-miterlimit:2;">
    <g id="Layer1">
        <g transform="matrix(0.701375,0,0,0.701375,-12.8609,-12.8188)">
            <path d="M46.826,41.08L46.856,23.609C46.856,23.609 46.826,23.533 46.826,23.533C46.826,23.311 46.758,22.953 46.408,22.804C45.971,22.618 45.155,22.663 44.9,22.663C44.897,22.663 46.604,22.663 46.6,22.663L23.562,22.663C23.559,22.663 23.555,22.663 23.552,22.663C23.075,22.663 22.682,23.056 22.682,23.533L22.682,45.9C22.682,46.383 23.079,46.78 23.562,46.78L39.76,46.78C40.464,48.411 42.078,49.573 43.855,49.573C46.302,49.573 48.315,47.559 48.315,45.113C48.315,43.39 48.139,42.682 46.816,41.08L46.826,41.08ZM39.491,43.955L25.39,44.041L25.39,25.343L44,25.343L44,40.65L43.84,40.65C41.403,40.661 39.99,42.279 39.491,43.975L39.491,43.955ZM46,44.67L45.3,44.67L45.05,45.59L45.75,45.59L45.56,46.27L44.86,46.27L44.67,46.96L44,46.96L44.19,46.27L43.26,46.27L43.07,46.96L42.37,46.96L42.56,46.27L41.86,46.27L42.04,45.59L42.74,45.59L42.99,44.67L42.29,44.67L42.48,43.98L43.18,43.98L43.37,43.29L44.07,43.29L43.88,43.98L44.82,43.98L45,43.29L45.7,43.29L45.52,43.98L46.22,43.98L46,44.67Z" style="fill:rgb(201,8,19);fill-rule:nonzero;"/>
        </g>
        <g transform="matrix(0.760981,0,0,1.40315,-14.8237,-33.7196)">
            <path d="M40.43,30.43L31.43,30.43C31.43,30.43 31.36,30.36 31.36,30.29L31.36,29.14C31.36,29.06 31.36,29 31.43,29L40.43,29C40.43,29 40.5,29.06 40.5,29.14L40.5,30.29C40.5,30.36 40.47,30.43 40.43,30.43Z" style="fill:rgb(201,8,19);fill-rule:nonzero;"/>
        </g>
        <g transform="matrix(0.760981,0,0,1.40315,-14.8237,-30.6821)">
            <path d="M40.43,30.43L31.43,30.43C31.43,30.43 31.36,30.36 31.36,30.29L31.36,29.14C31.36,29.06 31.36,29 31.43,29L40.43,29C40.43,29 40.5,29.06 40.5,29.14L40.5,30.29C40.5,30.36 40.47,30.43 40.43,30.43Z" style="fill:rgb(201,8,19);fill-rule:nonzero;"/>
        </g>
        <g transform="matrix(0.760981,0,0,1.40315,-14.8237,-27.682)">
            <path d="M40.43,30.43L31.43,30.43C31.43,30.43 31.36,30.36 31.36,30.29L31.36,29.14C31.36,29.06 31.36,29 31.43,29L40.43,29C40.43,29 40.5,29.06 40.5,29.14L40.5,30.29C40.5,30.36 40.47,30.43 40.43,30.43Z" style="fill:rgb(201,8,19);fill-rule:nonzero;"/>
        </g>
        <g transform="matrix(1.39576,0,0,1.39576,-33.5245,-33.4755)">
            <path d="M29.753,30.43L29,30.43C28.997,30.383 28.997,30.337 29,30.29L29,29.14C28.997,29.093 28.997,29.047 29,29L29.753,29C29.757,29.047 29.757,29.093 29.753,29.14L29.753,30.29C29.756,30.337 29.756,30.383 29.753,30.43Z" style="fill:rgb(201,8,19);fill-rule:nonzero;"/>
        </g>
        <g transform="matrix(1.39576,0,0,1.39576,-33.5245,-30.438)">
            <path d="M29.753,30.43L29,30.43C28.997,30.383 28.997,30.337 29,30.29L29,29.14C28.997,29.093 28.997,29.047 29,29L29.753,29C29.757,29.047 29.757,29.093 29.753,29.14L29.753,30.29C29.756,30.337 29.756,30.383 29.753,30.43Z" style="fill:rgb(201,8,19);fill-rule:nonzero;"/>
        </g>
        <g transform="matrix(1.39576,0,0,1.39576,-33.5245,-27.438)">
            <path d="M29.753,30.43L29,30.43C28.997,30.383 28.997,30.337 29,30.29L29,29.14C28.997,29.093 28.997,29.047 29,29L29.753,29C29.757,29.047 29.757,29.093 29.753,29.14L29.753,30.29C29.756,30.337 29.756,30.383 29.753,30.43Z" style="fill:rgb(201,8,19);fill-rule:nonzero;"/>
        </g>
        <g transform="matrix(0.701375,0,0,0.701375,-12.8609,-12.8188)">
            <path d="M43.45,45.59L44.39,45.59L44.64,44.67L43.7,44.67L43.45,45.59Z" style="fill:rgb(201,8,19);fill-rule:nonzero;"/>
        </g>
    </g>
</svg>
