<svg xmlns="http://www.w3.org/2000/svg" viewBox="0 0 20 20">
    <g class="wp-block-bu-collapsible-icon-plus">
        <path d="m12.48,7.49h6.86c.18,0,.32.06.44.18.12.12.18.27.18.44v3.74c0,.18-.06.32-.18.44-.12.12-.27.18-.44.18h-6.86v6.86c0,.18-.06.32-.18.44-.12.12-.27.18-.44.18h-3.74c-.18,0-.32-.06-.44-.18s-.18-.27-.18-.44v-6.86H.63c-.18,0-.32-.06-.45-.18-.12-.12-.19-.27-.19-.44v-3.74c0-.17.06-.32.19-.44.12-.12.27-.18.45-.18h6.86V.63c0-.18.06-.32.18-.45.12-.12.27-.18.44-.18h3.74c.18,0,.32.06.44.18.12.12.18.27.18.45v6.86Z"/>
    </g>
    <g class="wp-block-bu-collapsible-icon-minus">
        <path d="m19.34,7.49c.18,0,.32.06.44.18.12.12.18.27.18.44v3.74c0,.18-.06.32-.18.44-.12.12-.27.18-.44.18H.63c-.18,0-.32-.06-.45-.18-.12-.12-.19-.27-.19-.44v-3.74c0-.17.06-.32.19-.44.12-.12.27-.18.45-.18h18.7Z"/>
    </g>
    <g class="wp-block-bu-collapsible-icon-down">
        <path d="m10.42,16.12c-.12.12-.27.18-.44.18s-.31-.06-.44-.18L1.83,8.4c-.12-.12-.18-.27-.18-.44s.06-.31.18-.44l2.61-2.61c.12-.12.27-.19.44-.19s.31.06.44.19l4.67,4.66,4.66-4.66c.12-.12.27-.19.45-.19s.31.06.44.19l2.61,2.61c.12.12.19.27.19.44s-.06.31-.19.44l-7.72,7.72Z"/>	
    </g>
    <g class="wp-block-bu-collapsible-icon-up">
        <path d="m10.06,11.53l-4.67,4.66c-.12.12-.27.19-.44.19s-.31-.06-.44-.19l-2.61-2.61c-.12-.12-.19-.27-.19-.44s.06-.31.19-.44l7.72-7.72c.12-.12.27-.18.44-.18s.31.06.44.18l7.72,7.72c.12.12.19.27.19.44s-.06.31-.19.44l-2.61,2.61c-.12.12-.27.19-.44.19s-.33-.06-.45-.19l-4.66-4.66Z"/>
    </g>
</svg>